<svg xmlns="http://www.w3.org/2000/svg" width="960" height="540" viewBox="0 0 960 540">

    <style>
      .title { font: 700 24px "Segoe UI", "Microsoft YaHei", sans-serif; fill: #102A43; }
      .subtitle { font: 400 14px "Segoe UI", "Microsoft YaHei", sans-serif; fill: #486581; }
      .axis { stroke: #243B53; stroke-width: 2; }
      .grid { stroke: #D9E2EC; stroke-width: 1; }
      .tick { font: 400 13px "Segoe UI", "Microsoft YaHei", sans-serif; fill: #334E68; }
      .label { font: 600 14px "Segoe UI", "Microsoft YaHei", sans-serif; fill: #243B53; }
    </style>
    
<rect x="0" y="0" width="960" height="540" fill="#F8FBFF"/>
<text x="90" y="32" class="title">Singular Value Spectrum</text>
<text x="90" y="52" class="subtitle">log10 scale, used to reveal effective rank and parameter observability</text>
<line x1="90" y1="450.0" x2="930" y2="450.0" class="grid"/>
<text x="78" y="455.0" text-anchor="end" class="tick">-13.1745</text>
<line x1="90" y1="372.0" x2="930" y2="372.0" class="grid"/>
<text x="78" y="377.0" text-anchor="end" class="tick">-9.8413</text>
<line x1="90" y1="294.0" x2="930" y2="294.0" class="grid"/>
<text x="78" y="299.0" text-anchor="end" class="tick">-6.5082</text>
<line x1="90" y1="216.0" x2="930" y2="216.0" class="grid"/>
<text x="78" y="221.0" text-anchor="end" class="tick">-3.175</text>
<line x1="90" y1="138.0" x2="930" y2="138.0" class="grid"/>
<text x="78" y="143.0" text-anchor="end" class="tick">0.1581</text>
<line x1="90" y1="60.0" x2="930" y2="60.0" class="grid"/>
<text x="78" y="65.0" text-anchor="end" class="tick">3.4913</text>
<line x1="90" y1="450" x2="930" y2="450" class="axis"/>
<line x1="90" y1="60" x2="90" y2="450" class="axis"/>
<text x="26" y="255.0" transform="rotate(-90 26 255.0)" class="label">log10(sigma)</text>
<polyline fill="none" stroke="#C84C09" stroke-width="3" points="90.0,60.0 104.23728813559322,66.66785792944222 118.47457627118644,71.48302884097006 132.71186440677965,72.25531924551888 146.94915254237287,74.58866259852056 161.18644067796612,76.22464993782518 175.4237288135593,82.71271279217439 189.66101694915255,86.6049653711865 203.89830508474574,108.82351646164528 218.135593220339,110.25574094518441 232.3728813559322,397.9080314916312 246.61016949152543,405.6729594935721 260.8474576271186,410.96584225835505 275.08474576271186,422.4996866679707 289.3220338983051,425.7805016658547 303.5593220338983,430.0170353929565 317.7966101694915,431.2936124304149 332.03389830508473,431.5698753198382 346.271186440678,434.75761864596893 360.50847457627117,435.38619846854084 374.7457627118644,438.81457604046113 388.9830508474576,438.81457604046113 403.22033898305085,438.81457604046113 417.45762711864404,438.81457604046113 431.6949152542373,438.81457604046113 445.93220338983053,438.81457604046113 460.1694915254237,438.81457604046113 474.40677966101697,438.81457604046113 488.64406779661016,438.81457604046113 502.8813559322034,438.81457604046113 517.1186440677966,438.81457604046113 531.3559322033898,438.81457604046113 545.593220338983,438.81457604046113 559.8305084745763,438.81457604046113 574.0677966101695,438.81457604046113 588.3050847457628,438.81457604046113 602.542372881356,438.81457604046113 616.7796610169491,438.81457604046113 631.0169491525423,438.81457604046113 645.2542372881356,438.81457604046113 659.4915254237288,438.81457604046113 673.728813559322,438.81457604046113 687.9661016949152,438.81457604046113 702.2033898305085,438.81457604046113 716.4406779661017,438.81457604046113 730.6779661016949,438.81457604046113 744.9152542372881,438.81457604046113 759.1525423728814,438.81457604046113 773.3898305084746,438.81457604046113 787.6271186440678,438.81457604046113 801.8644067796611,438.81457604046113 816.1016949152543,438.81457604046113 830.3389830508474,438.81457604046113 844.5762711864406,438.81457604046113 858.8135593220339,438.81457604046113 873.0508474576271,438.81457604046113 887.2881355932203,438.81457604046113 901.5254237288135,438.81457604046113 915.7627118644068,445.7016214752733 930.0,450.0"/>
<circle cx="90.0" cy="60.0" r="3.5" fill="#C84C09"/>
<circle cx="104.23728813559322" cy="66.66785792944222" r="3.5" fill="#C84C09"/>
<circle cx="118.47457627118644" cy="71.48302884097006" r="3.5" fill="#C84C09"/>
<circle cx="132.71186440677965" cy="72.25531924551888" r="3.5" fill="#C84C09"/>
<circle cx="146.94915254237287" cy="74.58866259852056" r="3.5" fill="#C84C09"/>
<circle cx="161.18644067796612" cy="76.22464993782518" r="3.5" fill="#C84C09"/>
<circle cx="175.4237288135593" cy="82.71271279217439" r="3.5" fill="#C84C09"/>
<circle cx="189.66101694915255" cy="86.6049653711865" r="3.5" fill="#C84C09"/>
<circle cx="203.89830508474574" cy="108.82351646164528" r="3.5" fill="#C84C09"/>
<circle cx="218.135593220339" cy="110.25574094518441" r="3.5" fill="#C84C09"/>
<circle cx="232.3728813559322" cy="397.9080314916312" r="3.5" fill="#C84C09"/>
<circle cx="246.61016949152543" cy="405.6729594935721" r="3.5" fill="#C84C09"/>
<circle cx="260.8474576271186" cy="410.96584225835505" r="3.5" fill="#C84C09"/>
<circle cx="275.08474576271186" cy="422.4996866679707" r="3.5" fill="#C84C09"/>
<circle cx="289.3220338983051" cy="425.7805016658547" r="3.5" fill="#C84C09"/>
<circle cx="303.5593220338983" cy="430.0170353929565" r="3.5" fill="#C84C09"/>
<circle cx="317.7966101694915" cy="431.2936124304149" r="3.5" fill="#C84C09"/>
<circle cx="332.03389830508473" cy="431.5698753198382" r="3.5" fill="#C84C09"/>
<circle cx="346.271186440678" cy="434.75761864596893" r="3.5" fill="#C84C09"/>
<circle cx="360.50847457627117" cy="435.38619846854084" r="3.5" fill="#C84C09"/>
<circle cx="374.7457627118644" cy="438.81457604046113" r="3.5" fill="#C84C09"/>
<circle cx="388.9830508474576" cy="438.81457604046113" r="3.5" fill="#C84C09"/>
<circle cx="403.22033898305085" cy="438.81457604046113" r="3.5" fill="#C84C09"/>
<circle cx="417.45762711864404" cy="438.81457604046113" r="3.5" fill="#C84C09"/>
<circle cx="431.6949152542373" cy="438.81457604046113" r="3.5" fill="#C84C09"/>
<circle cx="445.93220338983053" cy="438.81457604046113" r="3.5" fill="#C84C09"/>
<circle cx="460.1694915254237" cy="438.81457604046113" r="3.5" fill="#C84C09"/>
<circle cx="474.40677966101697" cy="438.81457604046113" r="3.5" fill="#C84C09"/>
<circle cx="488.64406779661016" cy="438.81457604046113" r="3.5" fill="#C84C09"/>
<circle cx="502.8813559322034" cy="438.81457604046113" r="3.5" fill="#C84C09"/>
<circle cx="517.1186440677966" cy="438.81457604046113" r="3.5" fill="#C84C09"/>
<circle cx="531.3559322033898" cy="438.81457604046113" r="3.5" fill="#C84C09"/>
<circle cx="545.593220338983" cy="438.81457604046113" r="3.5" fill="#C84C09"/>
<circle cx="559.8305084745763" cy="438.81457604046113" r="3.5" fill="#C84C09"/>
<circle cx="574.0677966101695" cy="438.81457604046113" r="3.5" fill="#C84C09"/>
<circle cx="588.3050847457628" cy="438.81457604046113" r="3.5" fill="#C84C09"/>
<circle cx="602.542372881356" cy="438.81457604046113" r="3.5" fill="#C84C09"/>
<circle cx="616.7796610169491" cy="438.81457604046113" r="3.5" fill="#C84C09"/>
<circle cx="631.0169491525423" cy="438.81457604046113" r="3.5" fill="#C84C09"/>
<circle cx="645.2542372881356" cy="438.81457604046113" r="3.5" fill="#C84C09"/>
<circle cx="659.4915254237288" cy="438.81457604046113" r="3.5" fill="#C84C09"/>
<circle cx="673.728813559322" cy="438.81457604046113" r="3.5" fill="#C84C09"/>
<circle cx="687.9661016949152" cy="438.81457604046113" r="3.5" fill="#C84C09"/>
<circle cx="702.2033898305085" cy="438.81457604046113" r="3.5" fill="#C84C09"/>
<circle cx="716.4406779661017" cy="438.81457604046113" r="3.5" fill="#C84C09"/>
<circle cx="730.6779661016949" cy="438.81457604046113" r="3.5" fill="#C84C09"/>
<circle cx="744.9152542372881" cy="438.81457604046113" r="3.5" fill="#C84C09"/>
<circle cx="759.1525423728814" cy="438.81457604046113" r="3.5" fill="#C84C09"/>
<circle cx="773.3898305084746" cy="438.81457604046113" r="3.5" fill="#C84C09"/>
<circle cx="787.6271186440678" cy="438.81457604046113" r="3.5" fill="#C84C09"/>
<circle cx="801.8644067796611" cy="438.81457604046113" r="3.5" fill="#C84C09"/>
<circle cx="816.1016949152543" cy="438.81457604046113" r="3.5" fill="#C84C09"/>
<circle cx="830.3389830508474" cy="438.81457604046113" r="3.5" fill="#C84C09"/>
<circle cx="844.5762711864406" cy="438.81457604046113" r="3.5" fill="#C84C09"/>
<circle cx="858.8135593220339" cy="438.81457604046113" r="3.5" fill="#C84C09"/>
<circle cx="873.0508474576271" cy="438.81457604046113" r="3.5" fill="#C84C09"/>
<circle cx="887.2881355932203" cy="438.81457604046113" r="3.5" fill="#C84C09"/>
<circle cx="901.5254237288135" cy="438.81457604046113" r="3.5" fill="#C84C09"/>
<circle cx="915.7627118644068" cy="445.7016214752733" r="3.5" fill="#C84C09"/>
<circle cx="930.0" cy="450.0" r="3.5" fill="#C84C09"/>
<text x="90.0" y="472" text-anchor="middle" class="tick">1</text>
<text x="161.18644067796612" y="472" text-anchor="middle" class="tick">6</text>
<text x="232.3728813559322" y="472" text-anchor="middle" class="tick">11</text>
<text x="303.5593220338983" y="472" text-anchor="middle" class="tick">16</text>
<text x="374.7457627118644" y="472" text-anchor="middle" class="tick">21</text>
<text x="445.93220338983053" y="472" text-anchor="middle" class="tick">26</text>
<text x="517.1186440677966" y="472" text-anchor="middle" class="tick">31</text>
<text x="588.3050847457628" y="472" text-anchor="middle" class="tick">36</text>
<text x="659.4915254237288" y="472" text-anchor="middle" class="tick">41</text>
<text x="730.6779661016949" y="472" text-anchor="middle" class="tick">46</text>
<text x="801.8644067796611" y="472" text-anchor="middle" class="tick">51</text>
<text x="873.0508474576271" y="472" text-anchor="middle" class="tick">56</text>
<text x="930.0" y="472" text-anchor="middle" class="tick">60</text>
</svg>