<svg xmlns="http://www.w3.org/2000/svg" width="960" height="540" viewBox="0 0 960 540">

    <style>
      .title { font: 700 24px "Segoe UI", "Microsoft YaHei", sans-serif; fill: #102A43; }
      .subtitle { font: 400 14px "Segoe UI", "Microsoft YaHei", sans-serif; fill: #486581; }
      .axis { stroke: #243B53; stroke-width: 2; }
      .grid { stroke: #D9E2EC; stroke-width: 1; }
      .tick { font: 400 13px "Segoe UI", "Microsoft YaHei", sans-serif; fill: #334E68; }
      .label { font: 600 14px "Segoe UI", "Microsoft YaHei", sans-serif; fill: #243B53; }
    </style>
    
<rect x="0" y="0" width="960" height="540" fill="#F8FBFF"/>
<text x="90" y="32" class="title">Sample Error Norms</text>
<text x="90" y="52" class="subtitle">L2 norm of prediction error for each static sample</text>
<line x1="90" y1="450.0" x2="930" y2="450.0" class="grid"/>
<text x="78" y="455.0" text-anchor="end" class="tick">0</text>
<line x1="90" y1="372.0" x2="930" y2="372.0" class="grid"/>
<text x="78" y="377.0" text-anchor="end" class="tick">5.7e-17</text>
<line x1="90" y1="294.0" x2="930" y2="294.0" class="grid"/>
<text x="78" y="299.0" text-anchor="end" class="tick">1.1e-16</text>
<line x1="90" y1="215.99999999999997" x2="930" y2="215.99999999999997" class="grid"/>
<text x="78" y="220.99999999999997" text-anchor="end" class="tick">1.7e-16</text>
<line x1="90" y1="138.0" x2="930" y2="138.0" class="grid"/>
<text x="78" y="143.0" text-anchor="end" class="tick">2.3e-16</text>
<line x1="90" y1="60.0" x2="930" y2="60.0" class="grid"/>
<text x="78" y="65.0" text-anchor="end" class="tick">2.9e-16</text>
<line x1="90" y1="450" x2="930" y2="450" class="axis"/>
<line x1="90" y1="60" x2="90" y2="450" class="axis"/>
<text x="26" y="255.0" transform="rotate(-90 26 255.0)" class="label">||tau_meas - tau_pred||_2</text>
<rect x="163.5" y="60.0" width="273.0" height="390.0" fill="#1D7874" rx="4" ry="4"/>
<text x="300.0" y="472" text-anchor="middle" class="tick">1</text>
<rect x="583.5" y="203.5799184084854" width="273.0" height="246.4200815915146" fill="#1D7874" rx="4" ry="4"/>
<text x="720.0" y="472" text-anchor="middle" class="tick">2</text>
</svg>