<svg xmlns="http://www.w3.org/2000/svg" width="960" height="540" viewBox="0 0 960 540">

    <style>
      .title { font: 700 24px "Segoe UI", "Microsoft YaHei", sans-serif; fill: #102A43; }
      .subtitle { font: 400 14px "Segoe UI", "Microsoft YaHei", sans-serif; fill: #486581; }
      .axis { stroke: #243B53; stroke-width: 2; }
      .grid { stroke: #D9E2EC; stroke-width: 1; }
      .tick { font: 400 13px "Segoe UI", "Microsoft YaHei", sans-serif; fill: #334E68; }
      .label { font: 600 14px "Segoe UI", "Microsoft YaHei", sans-serif; fill: #243B53; }
    </style>
    
<rect x="0" y="0" width="960" height="540" fill="#F8FBFF"/>
<text x="90" y="32" class="title">Joint Mean Absolute Error</text>
<text x="90" y="52" class="subtitle">Average absolute torque prediction error for each joint</text>
<line x1="90" y1="450.0" x2="930" y2="450.0" class="grid"/>
<text x="78" y="455.0" text-anchor="end" class="tick">0</text>
<line x1="90" y1="372.0" x2="930" y2="372.0" class="grid"/>
<text x="78" y="377.0" text-anchor="end" class="tick">0.1787</text>
<line x1="90" y1="294.0" x2="930" y2="294.0" class="grid"/>
<text x="78" y="299.0" text-anchor="end" class="tick">0.3574</text>
<line x1="90" y1="216.0" x2="930" y2="216.0" class="grid"/>
<text x="78" y="221.0" text-anchor="end" class="tick">0.5361</text>
<line x1="90" y1="138.0" x2="930" y2="138.0" class="grid"/>
<text x="78" y="143.0" text-anchor="end" class="tick">0.7148</text>
<line x1="90" y1="60.0" x2="930" y2="60.0" class="grid"/>
<text x="78" y="65.0" text-anchor="end" class="tick">0.8935</text>
<line x1="90" y1="450" x2="930" y2="450" class="axis"/>
<line x1="90" y1="60" x2="90" y2="450" class="axis"/>
<text x="26" y="255.0" transform="rotate(-90 26 255.0)" class="label">mean absolute error (N*m)</text>
<rect x="114.5" y="286.9432120226811" width="91.0" height="163.05678797731892" fill="#2F6FED" rx="4" ry="4"/>
<text x="160.0" y="472" text-anchor="middle" class="tick">J1</text>
<rect x="254.5" y="121.65528375491016" width="91.0" height="328.34471624508984" fill="#2F6FED" rx="4" ry="4"/>
<text x="300.0" y="472" text-anchor="middle" class="tick">J2</text>
<rect x="394.5" y="187.86980051039365" width="91.0" height="262.13019948960635" fill="#2F6FED" rx="4" ry="4"/>
<text x="440.0" y="472" text-anchor="middle" class="tick">J3</text>
<rect x="534.5" y="438.97733645339963" width="91.0" height="11.022663546600363" fill="#2F6FED" rx="4" ry="4"/>
<text x="580.0" y="472" text-anchor="middle" class="tick">J4</text>
<rect x="674.5" y="330.60807413799705" width="91.0" height="119.39192586200295" fill="#2F6FED" rx="4" ry="4"/>
<text x="720.0" y="472" text-anchor="middle" class="tick">J5</text>
<rect x="814.5" y="60.0" width="91.0" height="390.0" fill="#2F6FED" rx="4" ry="4"/>
<text x="860.0" y="472" text-anchor="middle" class="tick">J6</text>
</svg>