<svg xmlns="http://www.w3.org/2000/svg" width="960" height="540" viewBox="0 0 960 540">

    <style>
      .title { font: 700 24px "Segoe UI", "Microsoft YaHei", sans-serif; fill: #102A43; }
      .subtitle { font: 400 14px "Segoe UI", "Microsoft YaHei", sans-serif; fill: #486581; }
      .axis { stroke: #243B53; stroke-width: 2; }
      .grid { stroke: #D9E2EC; stroke-width: 1; }
      .tick { font: 400 13px "Segoe UI", "Microsoft YaHei", sans-serif; fill: #334E68; }
      .label { font: 600 14px "Segoe UI", "Microsoft YaHei", sans-serif; fill: #243B53; }
    </style>
    
<rect x="0" y="0" width="960" height="540" fill="#F8FBFF"/>
<text x="90" y="32" class="title">Singular Value Spectrum</text>
<text x="90" y="52" class="subtitle">log10 scale, used to reveal effective rank and parameter observability</text>
<line x1="90" y1="450.0" x2="930" y2="450.0" class="grid"/>
<text x="78" y="455.0" text-anchor="end" class="tick">-13.1906</text>
<line x1="90" y1="372.0" x2="930" y2="372.0" class="grid"/>
<text x="78" y="377.0" text-anchor="end" class="tick">-9.864</text>
<line x1="90" y1="294.0" x2="930" y2="294.0" class="grid"/>
<text x="78" y="299.0" text-anchor="end" class="tick">-6.5373</text>
<line x1="90" y1="216.0" x2="930" y2="216.0" class="grid"/>
<text x="78" y="221.0" text-anchor="end" class="tick">-3.2107</text>
<line x1="90" y1="138.0" x2="930" y2="138.0" class="grid"/>
<text x="78" y="143.0" text-anchor="end" class="tick">0.116</text>
<line x1="90" y1="60.0" x2="930" y2="60.0" class="grid"/>
<text x="78" y="65.0" text-anchor="end" class="tick">3.4426</text>
<line x1="90" y1="450" x2="930" y2="450" class="axis"/>
<line x1="90" y1="60" x2="90" y2="450" class="axis"/>
<text x="26" y="255.0" transform="rotate(-90 26 255.0)" class="label">log10(sigma)</text>
<polyline fill="none" stroke="#C84C09" stroke-width="3" points="90.0,60.0 104.23728813559322,65.96400689035312 118.47457627118644,70.75585073127314 132.71186440677965,71.77086781066379 146.94915254237287,74.24304637854215 161.18644067796612,76.9436261511139 175.4237288135593,79.3356036821225 189.66101694915255,91.51065727194259 203.89830508474574,114.05217151502461 218.135593220339,125.39741623908509 232.3728813559322,399.0831411808673 246.61016949152543,399.57111857593793 260.8474576271186,407.33801201430055 275.08474576271186,419.06221903581286 289.3220338983051,428.8554889137906 303.5593220338983,430.7769339560725 317.7966101694915,432.5369830527946 332.03389830508473,438.13120739232926 346.271186440678,438.13120739232926 360.50847457627117,438.13120739232926 374.7457627118644,438.13120739232926 388.9830508474576,438.13120739232926 403.22033898305085,438.13120739232926 417.45762711864404,438.13120739232926 431.6949152542373,438.13120739232926 445.93220338983053,438.13120739232926 460.1694915254237,438.13120739232926 474.40677966101697,438.13120739232926 488.64406779661016,438.13120739232926 502.8813559322034,438.13120739232926 517.1186440677966,438.13120739232926 531.3559322033898,438.13120739232926 545.593220338983,438.13120739232926 559.8305084745763,438.13120739232926 574.0677966101695,438.13120739232926 588.3050847457628,438.13120739232926 602.542372881356,438.13120739232926 616.7796610169491,438.13120739232926 631.0169491525423,438.13120739232926 645.2542372881356,438.13120739232926 659.4915254237288,438.13120739232926 673.728813559322,438.13120739232926 687.9661016949152,438.13120739232926 702.2033898305085,438.13120739232926 716.4406779661017,438.13120739232926 730.6779661016949,438.13120739232926 744.9152542372881,438.13120739232926 759.1525423728814,438.13120739232926 773.3898305084746,438.13120739232926 787.6271186440678,438.13120739232926 801.8644067796611,438.13120739232926 816.1016949152543,438.13120739232926 830.3389830508474,438.13120739232926 844.5762711864406,438.13120739232926 858.8135593220339,438.13120739232926 873.0508474576271,438.13120739232926 887.2881355932203,438.13120739232926 901.5254237288135,438.27695148534536 915.7627118644068,443.7152328870658 930.0,450.0"/>
<circle cx="90.0" cy="60.0" r="3.5" fill="#C84C09"/>
<circle cx="104.23728813559322" cy="65.96400689035312" r="3.5" fill="#C84C09"/>
<circle cx="118.47457627118644" cy="70.75585073127314" r="3.5" fill="#C84C09"/>
<circle cx="132.71186440677965" cy="71.77086781066379" r="3.5" fill="#C84C09"/>
<circle cx="146.94915254237287" cy="74.24304637854215" r="3.5" fill="#C84C09"/>
<circle cx="161.18644067796612" cy="76.9436261511139" r="3.5" fill="#C84C09"/>
<circle cx="175.4237288135593" cy="79.3356036821225" r="3.5" fill="#C84C09"/>
<circle cx="189.66101694915255" cy="91.51065727194259" r="3.5" fill="#C84C09"/>
<circle cx="203.89830508474574" cy="114.05217151502461" r="3.5" fill="#C84C09"/>
<circle cx="218.135593220339" cy="125.39741623908509" r="3.5" fill="#C84C09"/>
<circle cx="232.3728813559322" cy="399.0831411808673" r="3.5" fill="#C84C09"/>
<circle cx="246.61016949152543" cy="399.57111857593793" r="3.5" fill="#C84C09"/>
<circle cx="260.8474576271186" cy="407.33801201430055" r="3.5" fill="#C84C09"/>
<circle cx="275.08474576271186" cy="419.06221903581286" r="3.5" fill="#C84C09"/>
<circle cx="289.3220338983051" cy="428.8554889137906" r="3.5" fill="#C84C09"/>
<circle cx="303.5593220338983" cy="430.7769339560725" r="3.5" fill="#C84C09"/>
<circle cx="317.7966101694915" cy="432.5369830527946" r="3.5" fill="#C84C09"/>
<circle cx="332.03389830508473" cy="438.13120739232926" r="3.5" fill="#C84C09"/>
<circle cx="346.271186440678" cy="438.13120739232926" r="3.5" fill="#C84C09"/>
<circle cx="360.50847457627117" cy="438.13120739232926" r="3.5" fill="#C84C09"/>
<circle cx="374.7457627118644" cy="438.13120739232926" r="3.5" fill="#C84C09"/>
<circle cx="388.9830508474576" cy="438.13120739232926" r="3.5" fill="#C84C09"/>
<circle cx="403.22033898305085" cy="438.13120739232926" r="3.5" fill="#C84C09"/>
<circle cx="417.45762711864404" cy="438.13120739232926" r="3.5" fill="#C84C09"/>
<circle cx="431.6949152542373" cy="438.13120739232926" r="3.5" fill="#C84C09"/>
<circle cx="445.93220338983053" cy="438.13120739232926" r="3.5" fill="#C84C09"/>
<circle cx="460.1694915254237" cy="438.13120739232926" r="3.5" fill="#C84C09"/>
<circle cx="474.40677966101697" cy="438.13120739232926" r="3.5" fill="#C84C09"/>
<circle cx="488.64406779661016" cy="438.13120739232926" r="3.5" fill="#C84C09"/>
<circle cx="502.8813559322034" cy="438.13120739232926" r="3.5" fill="#C84C09"/>
<circle cx="517.1186440677966" cy="438.13120739232926" r="3.5" fill="#C84C09"/>
<circle cx="531.3559322033898" cy="438.13120739232926" r="3.5" fill="#C84C09"/>
<circle cx="545.593220338983" cy="438.13120739232926" r="3.5" fill="#C84C09"/>
<circle cx="559.8305084745763" cy="438.13120739232926" r="3.5" fill="#C84C09"/>
<circle cx="574.0677966101695" cy="438.13120739232926" r="3.5" fill="#C84C09"/>
<circle cx="588.3050847457628" cy="438.13120739232926" r="3.5" fill="#C84C09"/>
<circle cx="602.542372881356" cy="438.13120739232926" r="3.5" fill="#C84C09"/>
<circle cx="616.7796610169491" cy="438.13120739232926" r="3.5" fill="#C84C09"/>
<circle cx="631.0169491525423" cy="438.13120739232926" r="3.5" fill="#C84C09"/>
<circle cx="645.2542372881356" cy="438.13120739232926" r="3.5" fill="#C84C09"/>
<circle cx="659.4915254237288" cy="438.13120739232926" r="3.5" fill="#C84C09"/>
<circle cx="673.728813559322" cy="438.13120739232926" r="3.5" fill="#C84C09"/>
<circle cx="687.9661016949152" cy="438.13120739232926" r="3.5" fill="#C84C09"/>
<circle cx="702.2033898305085" cy="438.13120739232926" r="3.5" fill="#C84C09"/>
<circle cx="716.4406779661017" cy="438.13120739232926" r="3.5" fill="#C84C09"/>
<circle cx="730.6779661016949" cy="438.13120739232926" r="3.5" fill="#C84C09"/>
<circle cx="744.9152542372881" cy="438.13120739232926" r="3.5" fill="#C84C09"/>
<circle cx="759.1525423728814" cy="438.13120739232926" r="3.5" fill="#C84C09"/>
<circle cx="773.3898305084746" cy="438.13120739232926" r="3.5" fill="#C84C09"/>
<circle cx="787.6271186440678" cy="438.13120739232926" r="3.5" fill="#C84C09"/>
<circle cx="801.8644067796611" cy="438.13120739232926" r="3.5" fill="#C84C09"/>
<circle cx="816.1016949152543" cy="438.13120739232926" r="3.5" fill="#C84C09"/>
<circle cx="830.3389830508474" cy="438.13120739232926" r="3.5" fill="#C84C09"/>
<circle cx="844.5762711864406" cy="438.13120739232926" r="3.5" fill="#C84C09"/>
<circle cx="858.8135593220339" cy="438.13120739232926" r="3.5" fill="#C84C09"/>
<circle cx="873.0508474576271" cy="438.13120739232926" r="3.5" fill="#C84C09"/>
<circle cx="887.2881355932203" cy="438.13120739232926" r="3.5" fill="#C84C09"/>
<circle cx="901.5254237288135" cy="438.27695148534536" r="3.5" fill="#C84C09"/>
<circle cx="915.7627118644068" cy="443.7152328870658" r="3.5" fill="#C84C09"/>
<circle cx="930.0" cy="450.0" r="3.5" fill="#C84C09"/>
<text x="90.0" y="472" text-anchor="middle" class="tick">1</text>
<text x="161.18644067796612" y="472" text-anchor="middle" class="tick">6</text>
<text x="232.3728813559322" y="472" text-anchor="middle" class="tick">11</text>
<text x="303.5593220338983" y="472" text-anchor="middle" class="tick">16</text>
<text x="374.7457627118644" y="472" text-anchor="middle" class="tick">21</text>
<text x="445.93220338983053" y="472" text-anchor="middle" class="tick">26</text>
<text x="517.1186440677966" y="472" text-anchor="middle" class="tick">31</text>
<text x="588.3050847457628" y="472" text-anchor="middle" class="tick">36</text>
<text x="659.4915254237288" y="472" text-anchor="middle" class="tick">41</text>
<text x="730.6779661016949" y="472" text-anchor="middle" class="tick">46</text>
<text x="801.8644067796611" y="472" text-anchor="middle" class="tick">51</text>
<text x="873.0508474576271" y="472" text-anchor="middle" class="tick">56</text>
<text x="930.0" y="472" text-anchor="middle" class="tick">60</text>
</svg>