<svg xmlns="http://www.w3.org/2000/svg" width="960" height="540" viewBox="0 0 960 540">

    <style>
      .title { font: 700 24px "Segoe UI", "Microsoft YaHei", sans-serif; fill: #102A43; }
      .subtitle { font: 400 14px "Segoe UI", "Microsoft YaHei", sans-serif; fill: #486581; }
      .axis { stroke: #243B53; stroke-width: 2; }
      .grid { stroke: #D9E2EC; stroke-width: 1; }
      .tick { font: 400 13px "Segoe UI", "Microsoft YaHei", sans-serif; fill: #334E68; }
      .label { font: 600 14px "Segoe UI", "Microsoft YaHei", sans-serif; fill: #243B53; }
    </style>
    
<rect x="0" y="0" width="960" height="540" fill="#F8FBFF"/>
<text x="90" y="32" class="title">Singular Value Spectrum</text>
<text x="90" y="52" class="subtitle">log10 scale, used to reveal effective rank and parameter observability</text>
<line x1="90" y1="450.0" x2="930" y2="450.0" class="grid"/>
<text x="78" y="455.0" text-anchor="end" class="tick">-12.8951</text>
<line x1="90" y1="372.0" x2="930" y2="372.0" class="grid"/>
<text x="78" y="377.0" text-anchor="end" class="tick">-9.6253</text>
<line x1="90" y1="294.0" x2="930" y2="294.0" class="grid"/>
<text x="78" y="299.0" text-anchor="end" class="tick">-6.3555</text>
<line x1="90" y1="216.0" x2="930" y2="216.0" class="grid"/>
<text x="78" y="221.0" text-anchor="end" class="tick">-3.0856</text>
<line x1="90" y1="138.0" x2="930" y2="138.0" class="grid"/>
<text x="78" y="143.0" text-anchor="end" class="tick">0.1842</text>
<line x1="90" y1="60.0" x2="930" y2="60.0" class="grid"/>
<text x="78" y="65.0" text-anchor="end" class="tick">3.454</text>
<line x1="90" y1="450" x2="930" y2="450" class="axis"/>
<line x1="90" y1="60" x2="90" y2="450" class="axis"/>
<text x="26" y="255.0" transform="rotate(-90 26 255.0)" class="label">log10(sigma)</text>
<polyline fill="none" stroke="#C84C09" stroke-width="3" points="90.0,60.0 104.23728813559322,66.20265028318045 118.47457627118644,67.15557332539072 132.71186440677965,71.55312657935195 146.94915254237287,73.93157978281062 161.18644067796612,76.29925662158439 175.4237288135593,77.06805675057285 189.66101694915255,82.02722883091121 203.89830508474574,86.61866864636283 218.135593220339,96.77487514909399 232.3728813559322,411.145170778615 246.61016949152543,417.0121622549602 260.8474576271186,419.20937239758 275.08474576271186,421.5788361131539 289.3220338983051,431.7968058007413 303.5593220338983,434.1954684508062 317.7966101694915,437.4577267251699 332.03389830508473,438.1005395787393 346.271186440678,442.00517012092655 360.50847457627117,443.31888661743585 374.7457627118644,443.31888661743585 388.9830508474576,443.31888661743585 403.22033898305085,443.31888661743585 417.45762711864404,443.31888661743585 431.6949152542373,443.31888661743585 445.93220338983053,443.31888661743585 460.1694915254237,443.31888661743585 474.40677966101697,443.31888661743585 488.64406779661016,443.31888661743585 502.8813559322034,443.31888661743585 517.1186440677966,443.31888661743585 531.3559322033898,443.31888661743585 545.593220338983,443.31888661743585 559.8305084745763,443.31888661743585 574.0677966101695,443.31888661743585 588.3050847457628,443.31888661743585 602.542372881356,443.31888661743585 616.7796610169491,443.31888661743585 631.0169491525423,443.31888661743585 645.2542372881356,443.31888661743585 659.4915254237288,443.31888661743585 673.728813559322,443.31888661743585 687.9661016949152,443.31888661743585 702.2033898305085,443.31888661743585 716.4406779661017,443.31888661743585 730.6779661016949,443.31888661743585 744.9152542372881,443.31888661743585 759.1525423728814,443.31888661743585 773.3898305084746,443.31888661743585 787.6271186440678,443.31888661743585 801.8644067796611,443.31888661743585 816.1016949152543,443.31888661743585 830.3389830508474,443.31888661743585 844.5762711864406,443.31888661743585 858.8135593220339,443.31888661743585 873.0508474576271,443.31888661743585 887.2881355932203,443.31888661743585 901.5254237288135,447.900055175076 915.7627118644068,448.5372336561324 930.0,450.0"/>
<circle cx="90.0" cy="60.0" r="3.5" fill="#C84C09"/>
<circle cx="104.23728813559322" cy="66.20265028318045" r="3.5" fill="#C84C09"/>
<circle cx="118.47457627118644" cy="67.15557332539072" r="3.5" fill="#C84C09"/>
<circle cx="132.71186440677965" cy="71.55312657935195" r="3.5" fill="#C84C09"/>
<circle cx="146.94915254237287" cy="73.93157978281062" r="3.5" fill="#C84C09"/>
<circle cx="161.18644067796612" cy="76.29925662158439" r="3.5" fill="#C84C09"/>
<circle cx="175.4237288135593" cy="77.06805675057285" r="3.5" fill="#C84C09"/>
<circle cx="189.66101694915255" cy="82.02722883091121" r="3.5" fill="#C84C09"/>
<circle cx="203.89830508474574" cy="86.61866864636283" r="3.5" fill="#C84C09"/>
<circle cx="218.135593220339" cy="96.77487514909399" r="3.5" fill="#C84C09"/>
<circle cx="232.3728813559322" cy="411.145170778615" r="3.5" fill="#C84C09"/>
<circle cx="246.61016949152543" cy="417.0121622549602" r="3.5" fill="#C84C09"/>
<circle cx="260.8474576271186" cy="419.20937239758" r="3.5" fill="#C84C09"/>
<circle cx="275.08474576271186" cy="421.5788361131539" r="3.5" fill="#C84C09"/>
<circle cx="289.3220338983051" cy="431.7968058007413" r="3.5" fill="#C84C09"/>
<circle cx="303.5593220338983" cy="434.1954684508062" r="3.5" fill="#C84C09"/>
<circle cx="317.7966101694915" cy="437.4577267251699" r="3.5" fill="#C84C09"/>
<circle cx="332.03389830508473" cy="438.1005395787393" r="3.5" fill="#C84C09"/>
<circle cx="346.271186440678" cy="442.00517012092655" r="3.5" fill="#C84C09"/>
<circle cx="360.50847457627117" cy="443.31888661743585" r="3.5" fill="#C84C09"/>
<circle cx="374.7457627118644" cy="443.31888661743585" r="3.5" fill="#C84C09"/>
<circle cx="388.9830508474576" cy="443.31888661743585" r="3.5" fill="#C84C09"/>
<circle cx="403.22033898305085" cy="443.31888661743585" r="3.5" fill="#C84C09"/>
<circle cx="417.45762711864404" cy="443.31888661743585" r="3.5" fill="#C84C09"/>
<circle cx="431.6949152542373" cy="443.31888661743585" r="3.5" fill="#C84C09"/>
<circle cx="445.93220338983053" cy="443.31888661743585" r="3.5" fill="#C84C09"/>
<circle cx="460.1694915254237" cy="443.31888661743585" r="3.5" fill="#C84C09"/>
<circle cx="474.40677966101697" cy="443.31888661743585" r="3.5" fill="#C84C09"/>
<circle cx="488.64406779661016" cy="443.31888661743585" r="3.5" fill="#C84C09"/>
<circle cx="502.8813559322034" cy="443.31888661743585" r="3.5" fill="#C84C09"/>
<circle cx="517.1186440677966" cy="443.31888661743585" r="3.5" fill="#C84C09"/>
<circle cx="531.3559322033898" cy="443.31888661743585" r="3.5" fill="#C84C09"/>
<circle cx="545.593220338983" cy="443.31888661743585" r="3.5" fill="#C84C09"/>
<circle cx="559.8305084745763" cy="443.31888661743585" r="3.5" fill="#C84C09"/>
<circle cx="574.0677966101695" cy="443.31888661743585" r="3.5" fill="#C84C09"/>
<circle cx="588.3050847457628" cy="443.31888661743585" r="3.5" fill="#C84C09"/>
<circle cx="602.542372881356" cy="443.31888661743585" r="3.5" fill="#C84C09"/>
<circle cx="616.7796610169491" cy="443.31888661743585" r="3.5" fill="#C84C09"/>
<circle cx="631.0169491525423" cy="443.31888661743585" r="3.5" fill="#C84C09"/>
<circle cx="645.2542372881356" cy="443.31888661743585" r="3.5" fill="#C84C09"/>
<circle cx="659.4915254237288" cy="443.31888661743585" r="3.5" fill="#C84C09"/>
<circle cx="673.728813559322" cy="443.31888661743585" r="3.5" fill="#C84C09"/>
<circle cx="687.9661016949152" cy="443.31888661743585" r="3.5" fill="#C84C09"/>
<circle cx="702.2033898305085" cy="443.31888661743585" r="3.5" fill="#C84C09"/>
<circle cx="716.4406779661017" cy="443.31888661743585" r="3.5" fill="#C84C09"/>
<circle cx="730.6779661016949" cy="443.31888661743585" r="3.5" fill="#C84C09"/>
<circle cx="744.9152542372881" cy="443.31888661743585" r="3.5" fill="#C84C09"/>
<circle cx="759.1525423728814" cy="443.31888661743585" r="3.5" fill="#C84C09"/>
<circle cx="773.3898305084746" cy="443.31888661743585" r="3.5" fill="#C84C09"/>
<circle cx="787.6271186440678" cy="443.31888661743585" r="3.5" fill="#C84C09"/>
<circle cx="801.8644067796611" cy="443.31888661743585" r="3.5" fill="#C84C09"/>
<circle cx="816.1016949152543" cy="443.31888661743585" r="3.5" fill="#C84C09"/>
<circle cx="830.3389830508474" cy="443.31888661743585" r="3.5" fill="#C84C09"/>
<circle cx="844.5762711864406" cy="443.31888661743585" r="3.5" fill="#C84C09"/>
<circle cx="858.8135593220339" cy="443.31888661743585" r="3.5" fill="#C84C09"/>
<circle cx="873.0508474576271" cy="443.31888661743585" r="3.5" fill="#C84C09"/>
<circle cx="887.2881355932203" cy="443.31888661743585" r="3.5" fill="#C84C09"/>
<circle cx="901.5254237288135" cy="447.900055175076" r="3.5" fill="#C84C09"/>
<circle cx="915.7627118644068" cy="448.5372336561324" r="3.5" fill="#C84C09"/>
<circle cx="930.0" cy="450.0" r="3.5" fill="#C84C09"/>
<text x="90.0" y="472" text-anchor="middle" class="tick">1</text>
<text x="161.18644067796612" y="472" text-anchor="middle" class="tick">6</text>
<text x="232.3728813559322" y="472" text-anchor="middle" class="tick">11</text>
<text x="303.5593220338983" y="472" text-anchor="middle" class="tick">16</text>
<text x="374.7457627118644" y="472" text-anchor="middle" class="tick">21</text>
<text x="445.93220338983053" y="472" text-anchor="middle" class="tick">26</text>
<text x="517.1186440677966" y="472" text-anchor="middle" class="tick">31</text>
<text x="588.3050847457628" y="472" text-anchor="middle" class="tick">36</text>
<text x="659.4915254237288" y="472" text-anchor="middle" class="tick">41</text>
<text x="730.6779661016949" y="472" text-anchor="middle" class="tick">46</text>
<text x="801.8644067796611" y="472" text-anchor="middle" class="tick">51</text>
<text x="873.0508474576271" y="472" text-anchor="middle" class="tick">56</text>
<text x="930.0" y="472" text-anchor="middle" class="tick">60</text>
</svg>